<svg xmlns="http://www.w3.org/2000/svg" viewBox="0 0 24 24" fill="none">
  <path d="M4.5 11.5003V15.5003C4.5 16.3303 5.17 17.0003 6 17.0003C6.83 17.0003 7.5 16.3303 7.5 15.5003V11.5003C7.5 10.6703 6.83 10.0003 6 10.0003C5.17 10.0003 4.5 10.6703 4.5 11.5003ZM10.5 11.5003V15.5003C10.5 16.3303 11.17 17.0003 12 17.0003C12.83 17.0003 13.5 16.3303 13.5 15.5003V11.5003C13.5 10.6703 12.83 10.0003 12 10.0003C11.17 10.0003 10.5 10.6703 10.5 11.5003ZM4 22.0003H20C20.83 22.0003 21.5 21.3303 21.5 20.5003C21.5 19.6703 20.83 19.0003 20 19.0003H4C3.17 19.0003 2.5 19.6703 2.5 20.5003C2.5 21.3303 3.17 22.0003 4 22.0003ZM16.5 11.5003V15.5003C16.5 16.3303 17.17 17.0003 18 17.0003C18.83 17.0003 19.5 16.3303 19.5 15.5003V11.5003C19.5 10.6703 18.83 10.0003 18 10.0003C17.17 10.0003 16.5 10.6703 16.5 11.5003ZM11.07 1.49031L3.17 5.65031C2.76 5.86031 2.5 6.29031 2.5 6.75031C2.5 7.44031 3.06 8.00031 3.75 8.00031H20.26C20.94 8.00031 21.5 7.44031 21.5 6.75031C21.5 6.29031 21.24 5.86031 20.83 5.65031L12.93 1.49031C12.35 1.18031 11.65 1.18031 11.07 1.49031Z" />
</svg>