<svg viewBox="0 0 24 24" fill="none"
  xmlns="http://www.w3.org/2000/svg">
  <path fillRule="evenodd" clipRule="evenodd" d="M5 3H19C20.1 3 21 3.9 21 5V19C21 20.1 20.1 21 19 21H5C3.9 21 3 20.1 3 19V5C3 3.9 3.9 3 5 3ZM5 19H19V5H5V19ZM6.25 7.72H11.25V9.22H6.25V7.72ZM18 15.75H13V17.25H18V15.75ZM13 13.25H18V14.75H13V13.25ZM8 18H9.5V16H11.5V14.5H9.5V12.5H8V14.5H6V16H8V18ZM15.5 9.54L14.09 10.95L13.03 9.89L14.44 8.47L13.03 7.06L14.09 6L15.5 7.41L16.91 6L17.97 7.06L16.56 8.47L17.97 9.89L16.91 10.95L15.5 9.54Z" />
</svg>