<svg xmlns="http://www.w3.org/2000/svg" viewBox="0 0 24 24" fill="none">
  <path d="M12.001 3C14.315 3 16.457 3.408 18.059 4.109C18.858 4.459 19.568 4.901 20.091 5.443C20.576 5.943 20.936 6.571 20.993 7.299L21.001 7.5V17.5C21.001 18.314 20.62 19.01 20.091 19.557C19.568 20.099 18.858 20.541 18.059 20.891C16.457 21.591 14.315 22 12.001 22C9.68698 22 7.54498 21.592 5.94298 20.891C5.14398 20.541 4.43398 20.099 3.91098 19.557C3.42598 19.057 3.06598 18.429 3.00898 17.701L3.00098 17.5V7.5C3.00098 6.686 3.38198 5.99 3.91098 5.443C4.43398 4.901 5.14398 4.459 5.94298 4.109C7.54498 3.409 9.68698 3 12.001 3ZM19.001 15.407C18.698 15.589 18.3833 15.7507 18.059 15.891C16.457 16.591 14.315 17 12.001 17C9.68698 17 7.54498 16.592 5.94298 15.891C5.61863 15.7507 5.30394 15.589 5.00098 15.407V17.5C5.00098 17.652 5.06698 17.876 5.34898 18.167C5.63498 18.463 6.09698 18.775 6.74498 19.059C8.03898 19.625 9.89598 20 12.001 20C14.106 20 15.963 19.625 17.257 19.059C17.905 18.775 18.367 18.463 18.653 18.167C18.935 17.877 19.001 17.652 19.001 17.5V15.407ZM19.001 10.407C18.698 10.589 18.3833 10.7507 18.059 10.891C16.457 11.591 14.315 12 12.001 12C9.68698 12 7.54498 11.592 5.94298 10.891C5.61863 10.7507 5.30394 10.589 5.00098 10.407V12.5C5.00098 12.652 5.06698 12.876 5.34898 13.167C5.63498 13.463 6.09698 13.775 6.74498 14.059C8.03898 14.625 9.89598 15 12.001 15C14.106 15 15.963 14.625 17.257 14.059C17.905 13.775 18.367 13.463 18.653 13.167C18.935 12.877 19.001 12.652 19.001 12.5V10.407ZM12.001 5C9.89598 5 8.03898 5.375 6.74498 5.941C6.09698 6.225 5.63498 6.537 5.34898 6.833C5.06698 7.123 5.00098 7.348 5.00098 7.5C5.00098 7.652 5.06698 7.876 5.34898 8.167C5.63498 8.463 6.09698 8.775 6.74498 9.059C8.03898 9.625 9.89598 10 12.001 10C14.106 10 15.963 9.625 17.257 9.059C17.905 8.775 18.367 8.463 18.653 8.167C18.935 7.877 19.001 7.652 19.001 7.5C19.001 7.348 18.935 7.124 18.653 6.833C18.367 6.537 17.905 6.225 17.257 5.941C15.963 5.375 14.106 5 12.001 5Z" />
</svg>