<svg xmlns="http://www.w3.org/2000/svg" viewBox="0 0 24 24" fill="none">
  <path d="M18.8086 6C19.6252 6 20.1317 6.4615 20.1318 7.20703C20.1318 7.43778 20.078 7.75749 19.9893 8.09473L19.3135 10.5449H21.0918C21.5938 10.5449 22.0008 10.9522 22.001 11.4541C22.001 11.9562 21.5939 12.3633 21.0918 12.3633H18.8115L17.3086 17.8076C17.0423 18.7486 16.5805 19.1572 15.7549 19.1572C14.8938 19.1572 14.4235 18.7575 14.166 17.7988L12.6348 12.3633H11.3574L9.83301 17.7988C9.57553 18.7397 9.09625 19.1572 8.25293 19.1572C7.40969 19.1572 6.94797 18.7486 6.68164 17.79L5.18652 12.3633H2.90918C2.40707 12.3633 2 11.9562 2 11.4541C2.00019 10.9522 2.40719 10.5449 2.90918 10.5449H4.68457L4.00977 8.09473C3.92104 7.76636 3.86719 7.44665 3.86719 7.20703C3.86735 6.4615 4.3738 6 5.19043 6C5.89164 6.00008 6.31776 6.39088 6.47754 7.1543L7.26074 10.5449H9.74902L10.623 7.19824C10.8272 6.36402 11.2536 6.00016 11.999 6C12.7269 6 13.1709 6.39067 13.3662 7.18066L14.2441 10.5449H16.7295L17.5127 7.1543C17.6814 6.382 18.1074 6.00008 18.8086 6ZM7.68066 12.3633L8.39551 15.4551H8.46582L9.27344 12.3633H7.68066ZM14.7178 12.3633L15.5244 15.4551H15.5947L16.3096 12.3633H14.7178ZM11.8682 10.5449H12.123L12.0352 10.2344H11.9551L11.8682 10.5449Z" />
</svg>