<svg xmlns="http://www.w3.org/2000/svg" viewBox="0 0 24 24" fill="none">
  <path fill-rule="evenodd" clip-rule="evenodd" d="M15.5171 4.51057C15.0755 4.17887 14.4487 4.26794 14.117 4.70951C13.7853 5.15109 13.8743 5.77796 14.3159 6.10966L17.7549 8.69293H3.25C2.69772 8.69293 2.25 9.14064 2.25 9.69293C2.25 10.2452 2.69772 10.6929 3.25 10.6929H20.7499C21.3022 10.6929 21.7499 10.2452 21.7499 9.69293C21.7499 9.59139 21.7348 9.49338 21.7066 9.40104C21.6471 9.20479 21.5269 9.02502 21.3504 8.89241L15.5171 4.51057ZM8.48289 19.4893C8.92447 19.821 9.55134 19.7319 9.88304 19.2904C10.2147 18.8488 10.1257 18.2219 9.6841 17.8902L6.24514 15.3069L20.75 15.3069C21.3023 15.3069 21.75 14.8592 21.75 14.3069C21.75 13.7547 21.3023 13.3069 20.75 13.3069L3.25011 13.3069C2.69783 13.3069 2.25011 13.7547 2.25011 14.3069C2.25011 14.408 2.26511 14.5056 2.293 14.5976C2.35237 14.7943 2.47269 14.9746 2.6496 15.1075L8.48289 19.4893Z"/>
</svg>