<svg xmlns="http://www.w3.org/2000/svg" viewBox="0 0 24 24" fill="none">
  <path fill-rule="evenodd" clip-rule="evenodd" d="M5.07692 5.07692V9.23077H9.23077V5.07692H5.07692ZM3.69231 3C3.5087 3 3.33261 3.07294 3.20277 3.20277C3.07294 3.33261 3 3.5087 3 3.69231V10.6154C3 10.799 3.07294 10.9751 3.20277 11.1049C3.33261 11.2348 3.5087 11.3077 3.69231 11.3077H10.6154C10.799 11.3077 10.9751 11.2348 11.1049 11.1049C11.2348 10.9751 11.3077 10.799 11.3077 10.6154V3.69231C11.3077 3.5087 11.2348 3.33261 11.1049 3.20277C10.9751 3.07294 10.799 3 10.6154 3H3.69231ZM14.7692 5.07692V9.23077H18.9231V5.07692H14.7692ZM13.3846 3C13.201 3 13.0249 3.07294 12.8951 3.20277C12.7652 3.33261 12.6923 3.5087 12.6923 3.69231V10.6154C12.6923 10.799 12.7652 10.9751 12.8951 11.1049C13.0249 11.2348 13.201 11.3077 13.3846 11.3077H20.3077C20.4913 11.3077 20.6674 11.2348 20.7972 11.1049C20.9271 10.9751 21 10.799 21 10.6154V3.69231C21 3.5087 20.9271 3.33261 20.7972 3.20277C20.6674 3.07294 20.4913 3 20.3077 3H13.3846ZM5.07692 14.7692V18.9231H9.23077V14.7692H5.07692ZM3.69231 12.6923C3.5087 12.6923 3.33261 12.7652 3.20277 12.8951C3.07294 13.0249 3 13.201 3 13.3846V20.3077C3 20.4913 3.07294 20.6674 3.20277 20.7972C3.33261 20.9271 3.5087 21 3.69231 21H10.6154C10.799 21 10.9751 20.9271 11.1049 20.7972C11.2348 20.6674 11.3077 20.4913 11.3077 20.3077V13.3846C11.3077 13.201 11.2348 13.0249 11.1049 12.8951C10.9751 12.7652 10.799 12.6923 10.6154 12.6923H3.69231ZM14.7692 14.7692V18.9231H18.9231V14.7692H14.7692ZM13.3846 12.6923C13.201 12.6923 13.0249 12.7652 12.8951 12.8951C12.7652 13.0249 12.6923 13.201 12.6923 13.3846V20.3077C12.6923 20.4913 12.7652 20.6674 12.8951 20.7972C13.0249 20.9271 13.201 21 13.3846 21H20.3077C20.4913 21 20.6674 20.9271 20.7972 20.7972C20.9271 20.6674 21 20.4913 21 20.3077V13.3846C21 13.201 20.9271 13.0249 20.7972 12.8951C20.6674 12.7652 20.4913 12.6923 20.3077 12.6923H13.3846Z"/>
</svg>