<svg viewBox="0 0 14 15" fill="none"
  xmlns="http://www.w3.org/2000/svg">
  <path d="M6.99967 0.833252C3.31967 0.833252 0.333008 3.81992 0.333008 7.49992C0.333008 11.1799 3.31967 14.1666 6.99967 14.1666C10.6797 14.1666 13.6663 11.1799 13.6663 7.49992C13.6663 3.81992 10.6797 0.833252 6.99967 0.833252ZM7.66634 12.1666H6.33301V10.8333H7.66634V12.1666ZM9.04634 6.99992L8.44634 7.61325C8.11301 7.95325 7.87301 8.25992 7.75301 8.73992C7.69967 8.95325 7.66634 9.19325 7.66634 9.49992H6.33301V9.16659C6.33301 8.85992 6.38634 8.56659 6.47967 8.29325C6.61301 7.90659 6.83301 7.55992 7.11301 7.27992L7.93967 6.43992C8.24634 6.14659 8.39301 5.70659 8.30634 5.23992C8.21967 4.75992 7.84634 4.35325 7.37967 4.21992C6.63967 4.01325 5.95301 4.43325 5.73301 5.06659C5.65301 5.31325 5.44634 5.49992 5.18634 5.49992H4.98634C4.59967 5.49992 4.33301 5.12659 4.43967 4.75325C4.72634 3.77325 5.55967 3.02659 6.59301 2.86659C7.60634 2.70659 8.57301 3.23325 9.17301 4.06659C9.95967 5.15325 9.72634 6.31992 9.04634 6.99992V6.99992Z" />
</svg>