<svg viewBox="0 0 24 24" fill="none"
  xmlns="http://www.w3.org/2000/svg">
  <path fillRule="evenodd" clipRule="evenodd" d="M18.8602 4.86003L21.6502 7.65003C21.8402 7.84003 21.8402 8.16003 21.6402 8.35003L18.8502 11.14C18.5402 11.46 18.0002 11.24 18.0002 10.79V9.00003H4.00024C3.45024 9.00003 3.00024 8.55003 3.00024 8.00003C3.00024 7.45003 3.45024 7.00003 4.00024 7.00003H18.0002V5.21003C18.0002 4.76003 18.5402 4.54003 18.8602 4.86003ZM5.14026 19.14L2.35026 16.35C2.16026 16.16 2.16026 15.84 2.36026 15.65L5.15026 12.86C5.46026 12.54 6.00026 12.76 6.00026 13.21V15H20.0003C20.5503 15 21.0003 15.45 21.0003 16C21.0003 16.55 20.5503 17 20.0003 17H6.00026V18.79C6.00026 19.24 5.46026 19.46 5.14026 19.14Z" />
</svg>