<svg viewBox="0 0 24 25" fill="none"
  xmlns="http://www.w3.org/2000/svg">
  <path fillRule="evenodd" clipRule="evenodd" d="M19.1405 19.36L16.3505 22.15C16.1605 22.34 15.8405 22.34 15.6505 22.14L12.8605 19.35C12.5405 19.04 12.7605 18.5 13.2105 18.5L15.0005 18.5L15.0005 4.5C15.0005 3.95 15.4505 3.5 16.0005 3.5C16.5505 3.5 17.0005 3.95 17.0005 4.5L17.0005 18.5L18.7905 18.5C19.2405 18.5 19.4605 19.04 19.1405 19.36ZM4.86046 5.64001L7.65046 2.85001C7.84046 2.66001 8.16046 2.66001 8.35046 2.86001L11.1405 5.65001C11.4605 5.96001 11.2405 6.50001 10.7905 6.50001L9.00046 6.50001L9.00046 20.5C9.00046 21.05 8.55046 21.5 8.00046 21.5C7.45046 21.5 7.00046 21.05 7.00046 20.5L7.00046 6.50001L5.21046 6.50001C4.76046 6.50001 4.54046 5.96001 4.86046 5.64001Z" />
</svg>