<svg viewBox="0 0 16 11" fill="none"
  xmlns="http://www.w3.org/2000/svg">
  <path d="M8.00033 0.166748C4.66699 0.166748 1.82033 2.24008 0.666992 5.16675C1.82033 8.09341 4.66699 10.1667 8.00033 10.1667C11.3337 10.1667 14.1803 8.09341 15.3337 5.16675C14.1803 2.24008 11.3337 0.166748 8.00033 0.166748ZM8.00033 8.50008C6.16033 8.50008 4.66699 7.00675 4.66699 5.16675C4.66699 3.32675 6.16033 1.83341 8.00033 1.83341C9.84033 1.83341 11.3337 3.32675 11.3337 5.16675C11.3337 7.00675 9.84033 8.50008 8.00033 8.50008ZM8.00033 3.16675C6.89366 3.16675 6.00033 4.06008 6.00033 5.16675C6.00033 6.27342 6.89366 7.16675 8.00033 7.16675C9.10699 7.16675 10.0003 6.27342 10.0003 5.16675C10.0003 4.06008 9.10699 3.16675 8.00033 3.16675Z" />
</svg>