<svg viewBox="0 0 16 13" fill="none"
  xmlns="http://www.w3.org/2000/svg">
  <path d="M8.00033 2.83329C9.84033 2.83329 11.3337 4.32662 11.3337 6.16662C11.3337 6.50662 11.267 6.83329 11.1737 7.13995L13.2137 9.17995C14.1403 8.35995 14.8737 7.33329 15.3337 6.15995C14.1803 3.23995 11.3337 1.16662 8.00033 1.16662C7.15366 1.16662 6.34032 1.29995 5.57366 1.54662L7.02033 2.99329C7.33366 2.89995 7.66033 2.83329 8.00033 2.83329ZM1.80699 0.606621C1.54699 0.866621 1.54699 1.28662 1.80699 1.54662L3.12033 2.85995C2.04033 3.71995 1.18033 4.85329 0.666992 6.16662C1.82033 9.09329 4.66699 11.1666 8.00033 11.1666C9.01366 11.1666 9.98032 10.9666 10.8737 10.62L12.687 12.4333C12.947 12.6933 13.367 12.6933 13.627 12.4333C13.887 12.1733 13.887 11.7533 13.627 11.4933L2.75366 0.606621C2.49366 0.346621 2.06699 0.346621 1.80699 0.606621ZM8.00033 9.49995C6.16033 9.49995 4.66699 8.00662 4.66699 6.16662C4.66699 5.65329 4.78699 5.16662 4.99366 4.73995L6.04033 5.78662C6.02033 5.90662 6.00033 6.03329 6.00033 6.16662C6.00033 7.27329 6.89366 8.16662 8.00033 8.16662C8.13366 8.16662 8.25366 8.14662 8.38032 8.11995L9.42699 9.16662C8.99366 9.37995 8.51366 9.49995 8.00033 9.49995ZM9.98032 5.94662C9.88033 5.01329 9.14699 4.28662 8.22032 4.18662L9.98032 5.94662Z" />
</svg>